<?xml version="1.0" encoding="UTF-8"?>
<svg width="124px" height="124px" viewBox="0 0 124 124" version="1.1" xmlns="http://www.w3.org/2000/svg" xmlns:xlink="http://www.w3.org/1999/xlink">
    <title>Artboard Copy 6</title>
    <g id="Artboard-Copy-6" stroke="none" stroke-width="1" fill="none" fill-rule="evenodd">
        <path d="M61.4998756,7.32751904 C76.559284,7.32751904 90.1941997,13.4340543 100.06463,23.3044842 C109.936483,33.1763381 116.042547,46.8130247 116.042547,61.8701901 C116.042547,76.9340014 109.937908,90.5687374 100.068641,100.438005 C90.1979499,110.308696 76.5614439,116.412861 61.4998756,116.412861 C46.4383073,116.412861 32.8018014,110.308696 22.9311105,100.438005 C13.061843,90.5687374 6.95720452,76.9340014 6.95720452,61.8701901 C6.95720452,46.8130247 13.0632677,33.1763381 22.9351215,23.3044842 C32.8055515,13.4340543 46.4404672,7.32751904 61.4998756,7.32751904 Z M64.0215106,59.3485551 L54.0870144,59.3485551 L54.0870144,61.1310076 L58.9782406,61.1310076 L58.9782406,82.1742776 L54.0870144,82.1742776 L54.0870144,83.95673 L68.9127368,83.95673 L68.9127368,82.1742776 L64.0215106,82.1742776 L64.0215106,59.3485551 Z M61.4998756,37.7456393 C60.2407463,37.7456393 59.100826,38.2559713 58.2756939,39.0811035 C57.4505617,39.9062356 56.9402297,41.0461559 56.9402297,42.3052852 C56.9402297,43.5644145 57.4505617,44.7043348 58.2756939,45.5294669 C59.100826,46.3545991 60.2407463,46.8649311 61.4998756,46.8649311 C62.7590049,46.8649311 63.8989252,46.3545991 64.7240573,45.5294669 C65.5491895,44.7043348 66.0595215,43.5644145 66.0595215,42.3052852 C66.0595215,41.0461559 65.5491895,39.9062356 64.7240573,39.0811035 C63.8989252,38.2559713 62.7590049,37.7456393 61.4998756,37.7456393 Z" id="ïš" stroke="#FFFFFF" stroke-width="8" fill="#000000" fill-rule="nonzero"></path>
    </g>
</svg>