<?xml version="1.0" encoding="UTF-8"?>
<svg width="124px" height="124px" viewBox="0 0 124 124" version="1.1" xmlns="http://www.w3.org/2000/svg" xmlns:xlink="http://www.w3.org/1999/xlink">
    <title>Artboard Copy 6</title>
    <g id="Artboard-Copy-6" stroke="none" stroke-width="1" fill="none" fill-rule="evenodd">
        <g id="Instagram" transform="translate(-10.000000, -10.000000)" fill-rule="nonzero">
            <path d="M72.5151792,25 C53.1018603,25 47.4242049,25.0200325 46.3205739,25.1116094 C42.3366307,25.4428605 39.8575738,26.0703059 37.1567893,27.4153428 C35.0754115,28.4491611 33.4339124,29.6475317 31.8138709,31.3273969 C28.8634641,34.3909331 27.0753388,38.1598981 26.4280375,42.6400157 C26.1133274,44.814969 26.0217754,45.258545 26.0031789,56.3679773 C25.9960264,60.0711214 26.0031789,64.9447338 26.0031789,71.4817561 C26.0031789,90.8846287 26.0246364,96.5581088 26.1176189,97.6598943 C26.4394815,101.537607 27.0474441,103.977275 28.3348943,106.645885 C30.7953547,111.754164 35.494548,115.58895 41.030584,117.01984 C42.9474543,117.513497 45.0645947,117.785366 47.7825452,117.914147 C48.9340979,117.964228 60.6713524,118 72.4157594,118 C84.1601665,118 95.9045735,117.985691 97.0275162,117.928455 C100.174617,117.780358 102.002081,117.534961 104.022662,117.012686 C109.594461,115.574641 114.207824,111.797091 116.718352,106.617268 C117.980769,104.013047 118.620917,101.480371 118.910594,97.8051297 C118.973536,97.0038311 119,84.228127 119,71.4695936 C119,58.7089138 118.97139,45.9568194 118.908448,45.1555209 C118.615195,41.4208972 117.975047,38.9096847 116.671861,36.2553831 C115.602562,34.0825762 114.415247,32.4599466 112.691494,30.8008293 C109.615203,27.8617806 105.852987,26.0731677 101.3698,25.4264053 C99.1975851,25.1123249 98.7648587,25.019317 87.6498718,25 L72.5151792,25 Z" id="Path" fill="#000000"></path>
            <path d="M72.0049688,19 C57.6109022,19 55.8044667,19.0629375 50.1510745,19.3202083 C44.508724,19.5785833 40.6573506,20.4718542 37.2873988,21.7825 C33.8015083,23.1362083 30.8445192,24.9470417 27.8985719,27.8940625 C24.9504162,30.8399792 23.139564,33.7969375 21.7814248,37.2816875 C20.4674528,40.6527083 19.5730685,44.5051458 19.3191075,50.1452292 C19.0662507,55.7985625 19,57.6060833 19,72 C19,86.3939167 19.0640423,88.1948125 19.3202117,93.8481458 C19.5796935,99.4904375 20.4729737,103.341771 21.782529,106.711688 C23.1373556,110.197542 24.9482078,113.1545 27.8952593,116.100417 C30.8401025,119.048542 33.7970916,120.863792 37.2807738,122.2175 C40.6529339,123.528146 44.5054115,124.421417 50.1466578,124.679792 C55.80005,124.937063 57.6053813,125 71.9983437,125 C86.3935145,125 88.1944291,124.937063 93.8478213,124.679792 C99.4901718,124.421417 103.345962,123.528146 106.718122,122.2175 C110.202908,120.863792 113.155481,119.048542 116.100324,116.100417 C119.04848,113.1545 120.859332,110.197542 122.217471,106.712792 C123.520401,103.341771 124.414786,99.4893333 124.679788,93.84925 C124.933749,88.1959167 125,86.3939167 125,72 C125,57.6060833 124.933749,55.7996667 124.679788,50.1463333 C124.414786,44.5040417 123.520401,40.6527083 122.217471,37.2827917 C120.859332,33.7969375 119.04848,30.8399792 116.100324,27.8940625 C113.152168,24.9459375 110.204013,23.1351042 106.71481,21.7825 C103.336024,20.4718542 99.4824425,19.5785833 93.8400921,19.3202083 C88.1866999,19.0629375 86.3868894,19 71.9884061,19 L72.0049688,19 Z M67.2503776,28.5510417 C68.6615173,28.5488333 70.2360754,28.5510417 72.0049688,28.5510417 C86.1561162,28.5510417 87.8333628,28.6018333 93.4216086,28.8557917 C98.5891624,29.0920833 101.393775,29.9555417 103.262044,30.6809792 C105.735403,31.6416042 107.498776,32.7899375 109.352691,34.6449375 C111.20771,36.4999375 112.356056,38.2666042 113.318899,40.7399375 C114.044344,42.6059792 114.908916,45.4105625 115.144106,50.5780625 C115.398067,56.1651458 115.453276,57.8434792 115.453276,71.9878542 C115.453276,86.1322292 115.398067,87.8105625 115.144106,93.3976458 C114.907812,98.5651458 114.044344,101.369729 113.318899,103.235771 C112.358264,105.709104 111.20771,107.47025 109.352691,109.324146 C107.497672,111.179146 105.736508,112.327479 103.262044,113.288104 C101.395983,114.016854 98.5891624,114.878104 93.4216086,115.114396 C87.834467,115.368354 86.1561162,115.423562 72.0049688,115.423562 C57.8527172,115.423562 56.1754706,115.368354 50.588329,115.114396 C45.4207752,114.875896 42.6161627,114.012437 40.746789,113.287 C38.2734299,112.326375 36.5067449,111.178042 34.6517255,109.323042 C32.7967062,107.468042 31.6483609,105.705792 30.6855176,103.231354 C29.9600725,101.365312 29.095501,98.5607292 28.860311,93.3932292 C28.6063501,87.8061458 28.5555579,86.1278125 28.5555579,71.9746042 C28.5555579,57.8213958 28.6063501,56.1518958 28.860311,50.5648125 C29.0966052,45.3973125 29.9600725,42.5927292 30.6855176,40.7244792 C31.6461526,38.2511458 32.7967062,36.4844792 34.6517255,34.6294792 C36.5067449,32.7744792 38.2734299,31.6261458 40.746789,30.6633125 C42.6150585,29.9345625 45.4207752,29.0733125 50.588329,28.8359167 C55.47763,28.6150833 57.3723997,28.5488333 67.2503776,28.5377917 L67.2503776,28.5510417 Z M100.296222,37.35125 C96.7849353,37.35125 93.9361556,40.1966875 93.9361556,43.7090417 C93.9361556,47.2202917 96.7849353,50.0690417 100.296222,50.0690417 C103.807508,50.0690417 106.656288,47.2202917 106.656288,43.7090417 C106.656288,40.1977917 103.807508,37.3490417 100.296222,37.3490417 L100.296222,37.35125 Z M72.0049688,44.7822917 C56.9737914,44.7822917 44.7869769,56.9689792 44.7869769,72 C44.7869769,87.0310208 56.9737914,99.2121875 72.0049688,99.2121875 C87.0361462,99.2121875 99.2185439,87.0310208 99.2185439,72 C99.2185439,56.9689792 87.035042,44.7822917 72.0038646,44.7822917 L72.0049688,44.7822917 Z M72.0049688,54.3333333 C81.7614871,54.3333333 89.6718195,62.2424792 89.6718195,72 C89.6718195,81.7564167 81.7614871,89.6666667 72.0049688,89.6666667 C62.2473463,89.6666667 54.3381181,81.7564167 54.3381181,72 C54.3381181,62.2424792 62.2473463,54.3333333 72.0049688,54.3333333 Z" id="Shape" fill="#FFFFFF"></path>
        </g>
    </g>
</svg>