<?xml version="1.0" encoding="UTF-8"?>
<svg width="124px" height="124px" viewBox="0 0 124 124" version="1.1" xmlns="http://www.w3.org/2000/svg" xmlns:xlink="http://www.w3.org/1999/xlink">
    <title>Artboard Copy 6</title>
    <g id="Artboard-Copy-6" stroke="none" stroke-width="1" fill="none" fill-rule="evenodd">
        <path d="M107.150186,4.70308103 C110.051433,4.70308103 112.68097,5.87960927 114.585559,7.78245499 C116.490134,9.68528641 117.66909,12.3137533 117.671821,15.2187453 L117.671821,15.2187453 L117.671821,86.95673 C117.671821,91.7712688 114.977901,96.2953844 110.159939,99.5073593 C106.050853,102.24675 100.38753,104 94.1069161,104 C87.8267059,104 82.1636759,102.246468 78.0546268,99.5071021 C73.2360421,96.2947122 70.5420111,91.7702139 70.5420111,86.95673 C70.5420111,82.1432462 73.2360421,77.6187478 78.0546268,74.406358 C82.1636759,71.6669919 87.8267059,69.9134601 94.1069161,69.9134601 C94.8480932,69.9174402 95.7164534,69.9687924 96.628551,70.0546456 L96.628551,70.0546456 L96.628551,42.4307453 L52.4554712,55.3720773 L52.4554712,100 C52.4554712,104.813484 49.7614403,109.337982 44.9428555,112.550372 C40.8338064,115.289738 35.1707764,117.04327 28.8905663,117.04327 C22.6103562,117.04327 16.9473261,115.289738 12.838277,112.550372 C8.01969228,109.337982 5.32566134,104.813484 5.32566134,100 C5.32566134,95.1865162 8.01969228,90.6620178 12.838277,87.449628 C16.9473261,84.7102619 22.6103562,82.95673 28.8905663,82.95673 C29.6323183,82.9608706 30.5003909,83.0121872 31.4122013,83.097857 L31.4122013,83.097857 L31.412202,34.4775272 C31.4134864,32.3472305 32.1868691,30.135135 33.5277845,28.3095781 C34.8770091,26.4727089 36.7715613,25.0670244 38.8184202,24.4340981 L38.8184202,24.4340981 L104.032658,5.17568669 C104.888955,4.9137071 106.272272,4.70308103 107.150186,4.70308103 Z" id="ï€" stroke="#FFFFFF" stroke-width="8" fill="#000000" fill-rule="nonzero"></path>
    </g>
</svg>