<?xml version="1.0" encoding="UTF-8"?>
<svg width="38px" height="31px" viewBox="0 0 38 31" version="1.1" xmlns="http://www.w3.org/2000/svg" xmlns:xlink="http://www.w3.org/1999/xlink">
    <title></title>
    <g id="Page-1" stroke="none" stroke-width="1" fill="none" fill-rule="evenodd">
        <path d="M5.58400646,6.65670437 C6.24480363,6.65670437 6.78109854,6.12040946 6.78109854,5.45961229 L6.78109854,1.86833604 C6.78109854,1.20753887 6.24480363,0.671243957 5.58400646,0.671243957 L1.99273021,0.671243957 C1.33193304,0.671243957 0.795638125,1.20753887 0.795638125,1.86833604 L0.795638125,5.45961229 C0.795638125,6.12040946 1.33193304,6.65670437 1.99273021,6.65670437 L5.58400646,6.65670437 Z M36.7084006,4.86106625 C37.0387992,4.86106625 37.3069467,4.59291879 37.3069467,4.26252021 L37.3069467,3.06542812 C37.3069467,2.73502954 37.0387992,2.46688208 36.7084006,2.46688208 L11.5694669,2.46688208 C11.2390683,2.46688208 10.9709208,2.73502954 10.9709208,3.06542812 L10.9709208,4.26252021 C10.9709208,4.59291879 11.2390683,4.86106625 11.5694669,4.86106625 L36.7084006,4.86106625 Z M5.58400646,18.6276252 C6.24480363,18.6276252 6.78109854,18.0913303 6.78109854,17.4305331 L6.78109854,13.8392569 C6.78109854,13.1784597 6.24480363,12.6421648 5.58400646,12.6421648 L1.99273021,12.6421648 C1.33193304,12.6421648 0.795638125,13.1784597 0.795638125,13.8392569 L0.795638125,17.4305331 C0.795638125,18.0913303 1.33193304,18.6276252 1.99273021,18.6276252 L5.58400646,18.6276252 Z M36.7084006,16.8319871 C37.0387992,16.8319871 37.3069467,16.5638396 37.3069467,16.233441 L37.3069467,15.036349 C37.3069467,14.7059504 37.0387992,14.4378029 36.7084006,14.4378029 L11.5694669,14.4378029 C11.2390683,14.4378029 10.9709208,14.7059504 10.9709208,15.036349 L10.9709208,16.233441 C10.9709208,16.5638396 11.2390683,16.8319871 11.5694669,16.8319871 L36.7084006,16.8319871 Z M5.58400646,30.598546 C6.24480363,30.598546 6.78109854,30.0622511 6.78109854,29.401454 L6.78109854,25.8101777 C6.78109854,25.1493805 6.24480363,24.6130856 5.58400646,24.6130856 L1.99273021,24.6130856 C1.33193304,24.6130856 0.795638125,25.1493805 0.795638125,25.8101777 L0.795638125,29.401454 C0.795638125,30.0622511 1.33193304,30.598546 1.99273021,30.598546 L5.58400646,30.598546 Z M36.7084006,28.8029079 C37.0387992,28.8029079 37.3069467,28.5347605 37.3069467,28.2043619 L37.3069467,27.0072698 C37.3069467,26.6768712 37.0387992,26.4087237 36.7084006,26.4087237 L11.5694669,26.4087237 C11.2390683,26.4087237 10.9709208,26.6768712 10.9709208,27.0072698 L10.9709208,28.2043619 C10.9709208,28.5347605 11.2390683,28.8029079 11.5694669,28.8029079 L36.7084006,28.8029079 Z" id="" fill="#FFFFFF" fill-rule="nonzero"></path>
    </g>
</svg>