<?xml version="1.0" encoding="UTF-8"?>
<svg width="162px" height="124px" viewBox="0 0 162 124" version="1.1" xmlns="http://www.w3.org/2000/svg" xmlns:xlink="http://www.w3.org/1999/xlink">
    <title>Artboard</title>
    <g id="Artboard" stroke="none" stroke-width="1" fill="none" fill-rule="evenodd">
        <g id="soundcloud" transform="translate(9.000000, 19.000000)" fill="#000000" fill-rule="nonzero" stroke="#FFFFFF" stroke-width="8">
            <path d="M72.8377351,-4 C80.3594984,-4 87.3639114,-2.2230614 93.8526039,1.32190287 C100.339791,4.86597526 105.584337,9.70381903 109.589259,15.8316691 C112.698838,20.5893932 114.795607,25.7246263 115.877055,31.238133 C117.62421,30.8786165 119.426445,30.6979833 121.284155,30.6979833 C128.637975,30.6979833 134.92935,33.3001325 140.15613,38.5089905 C145.389429,43.724346 148,49.9947811 148,57.315502 C148,64.6856032 145.38611,70.9770806 140.15613,76.188993 C134.926072,81.4011175 128.655778,84 121.34654,83.9999974 L121.34654,83.9999974 L62.543281,83.9323197 C60.7572741,83.5494347 59.4779274,82.6059889 58.662098,81.1536702 C58.0420542,80.049884 57.8484527,79.0671218 57.8484527,78.2547857 L57.8484527,78.2547857 L57.8484527,5.23489304 C57.8484527,3.30860584 58.2206232,1.80147621 58.7889014,0.663106767 C59.6540039,-1.06985819 60.9769394,-2.17699168 62.6957422,-2.73240643 C66.3005921,-3.60703782 69.5817199,-4 72.8377351,-4 Z M35.7823582,25.66449 C38.2292583,25.66449 40.3387589,26.5463777 42.0962934,28.3474399 C43.8108355,30.1047586 44.6739269,32.2202227 44.6739269,34.697868 L44.6739269,34.697868 L44.6739269,76.107118 C44.6739269,78.9125359 43.5521753,80.9163471 41.6124098,82.2906264 C40.0947559,83.3657934 38.174536,83.9998846 35.7823582,83.9998846 C33.3577078,83.9998846 31.4165198,83.3732424 29.8884473,82.3164852 C27.8932234,80.9365031 26.756639,78.9194882 26.756639,76.1071069 L26.756639,76.1071069 L26.7567542,34.697868 C26.7567542,32.2095157 27.6366813,30.0810767 29.4003342,28.3145313 C31.1663964,26.5457802 33.2944076,25.66449 35.7823582,25.66449 Z M45.7305851,1.03887082 C48.3222297,-1.1514441 50.965705,-1.69978179 53.5758772,-1.07713358 C55.8640398,-0.566013813 57.6032818,0.740457239 58.7566239,2.89224324 C59.5700905,4.40992486 60.0854529,6.48824686 60.0854529,9.19463905 L60.0854529,9.19463905 L60.0854529,76.30846 C60.0854529,79.0300803 59.0186155,80.9572822 57.2344794,82.2855227 C55.8772728,83.2959258 53.8969655,83.9998846 51.1270105,83.9998846 C48.3570466,83.9998846 46.3767168,83.295938 45.0194945,82.2855466 C43.2353081,80.9572995 42.1684529,79.0300843 42.1684529,76.3084703 L42.1684529,76.3084703 L42.1682801,9.19458136 C42.1682801,5.64348806 43.4449407,2.97041547 45.7305851,1.03887082 Z M20.3033826,19.6912659 C22.8059144,19.6912659 24.9184595,20.5720515 26.652051,22.3080719 C28.3975516,24.0564376 29.2619978,26.1531315 29.2619978,28.5905697 L29.2619978,28.5905697 L29.2619978,73.9594503 C29.2619978,76.7653222 28.1400348,78.76904 26.2002653,80.1432506 C24.6937831,81.2102739 22.7546925,81.852217 20.3033826,81.852217 C17.9112896,81.852217 15.9909143,81.2183117 14.4727476,80.1427255 C12.5333999,78.7684471 11.4118139,76.7651057 11.4118139,73.9594503 L11.4118139,73.9594503 L11.4118139,28.5905697 C11.4118139,26.1530852 12.2759025,24.0566909 14.0218455,22.307987 C15.7698682,20.5572002 17.8666731,19.6912659 20.3033826,19.6912659 Z M4.89174151,37.207908 C7.39481406,37.207908 9.50749129,38.0887541 11.2399285,39.8243473 C12.9710083,41.5577486 13.8502991,43.6705935 13.8502991,46.1743642 L13.8502991,46.1743642 L13.8502991,65.6373319 C13.8502991,68.5194421 13.1112013,70.4435391 12.1662631,71.6550662 C11.1407012,72.9694206 9.47413787,74.0908246 6.85894447,74.5977809 C4.27395143,75.0686579 1.87386304,74.5496155 -0.368403641,72.9621394 C-2.70529142,71.3072878 -4,68.9128891 -4,65.6373319 L-4,65.6373319 L-4,46.1743642 C-4,43.6705628 -3.1205518,41.5578103 -1.38993795,39.8247717 C0.358409708,38.0735544 2.45490669,37.207908 4.89174151,37.207908 Z" id="Shape"></path>
        </g>
    </g>
</svg>